<mxfile host="app.diagrams.net" modified="2024-04-15T06:14:42.200Z" agent="Mozilla/5.0 (Macintosh; Intel Mac OS X 10_15_7) AppleWebKit/537.36 (KHTML, like Gecko) Chrome/123.0.0.0 Safari/537.36" etag="YT-MMDXtVz3oPPDCouJk" version="24.2.5" type="device">
  <diagram name="Page-1" id="PFfNBrce9WFTCQyNHP7d">
    <mxGraphModel dx="2074" dy="1146" grid="1" gridSize="10" guides="1" tooltips="1" connect="1" arrows="1" fold="1" page="1" pageScale="1" pageWidth="850" pageHeight="1100" math="0" shadow="0">
      <root>
        <mxCell id="0" />
        <mxCell id="1" parent="0" />
        <mxCell id="muHszNeMJqfiCZ4DPC4F-31" value="" style="whiteSpace=wrap;html=1;aspect=fixed;" vertex="1" parent="1">
          <mxGeometry x="120" y="200" width="520" height="520" as="geometry" />
        </mxCell>
        <mxCell id="muHszNeMJqfiCZ4DPC4F-32" value="" style="rounded=0;whiteSpace=wrap;html=1;" vertex="1" parent="1">
          <mxGeometry x="160" y="220" width="440" height="50" as="geometry" />
        </mxCell>
        <mxCell id="muHszNeMJqfiCZ4DPC4F-33" value="" style="rounded=0;whiteSpace=wrap;html=1;" vertex="1" parent="1">
          <mxGeometry x="160" y="630" width="440" height="50" as="geometry" />
        </mxCell>
        <mxCell id="muHszNeMJqfiCZ4DPC4F-34" value="" style="rounded=0;whiteSpace=wrap;html=1;" vertex="1" parent="1">
          <mxGeometry x="270" y="320" width="150" height="30" as="geometry" />
        </mxCell>
        <mxCell id="muHszNeMJqfiCZ4DPC4F-35" value="" style="rounded=0;whiteSpace=wrap;html=1;" vertex="1" parent="1">
          <mxGeometry x="270" y="380" width="150" height="30" as="geometry" />
        </mxCell>
        <mxCell id="muHszNeMJqfiCZ4DPC4F-37" value="" style="rounded=1;whiteSpace=wrap;html=1;" vertex="1" parent="1">
          <mxGeometry x="270" y="440" width="80" height="20" as="geometry" />
        </mxCell>
      </root>
    </mxGraphModel>
  </diagram>
</mxfile>
